<?xml version="1.0" encoding="UTF-8"?><svg xmlns="http://www.w3.org/2000/svg" xmlns:xlink="http://www.w3.org/1999/xlink" viewBox="0 0 2500 2000"><defs><style>.cls-1{isolation:isolate;}.cls-2,.cls-3,.cls-4,.cls-5{stroke-width:0px;}.cls-3{fill:none;}.cls-4{fill:#0404b7;}.cls-5{fill:#fff;}.cls-6{clip-path:url(#clippath);}.cls-7{mix-blend-mode:overlay;opacity:.5;}</style><clipPath id="clippath"><circle class="cls-3" cx="1250" cy="1000" r="544.57"/></clipPath></defs><g class="cls-1"><g id="_Layer_"><rect class="cls-5" width="2500" height="2000"/><g class="cls-6"><circle class="cls-4" cx="1250" cy="1000" r="544.57"/><g class="cls-7"><path class="cls-2" d="m1752.61,1389.98c48.1-27.19,80.67-78.78,80.67-137.86,0-87.28-71.01-158.28-158.28-158.28s-158.28,71-158.28,158.28c0,59.08,32.56,110.68,80.67,137.86-111.04,33.42-192.17,136.57-192.17,258.36,0,8.79,7.13,15.92,15.92,15.92l331.48-274.28Z"/><path class="cls-2" d="m1750.11,1387.48c48.1-27.19,80.67-78.78,80.67-137.86,0-87.28-71.01-158.28-158.28-158.28s-158.28,71-158.28,158.28c0,59.08,32.56,110.68,80.67,137.86-111.04,33.42-192.17,136.57-192.17,258.36,0,8.79,7.13,15.92,15.92,15.92l331.48-274.28Z"/><path class="cls-2" d="m1747.61,1384.98c48.1-27.19,80.67-78.78,80.67-137.86,0-87.28-71.01-158.28-158.28-158.28s-158.28,71-158.28,158.28c0,59.08,32.56,110.68,80.67,137.86-111.04,33.42-192.17,136.57-192.17,258.36,0,8.79,7.13,15.92,15.92,15.92l331.48-274.28Z"/><path class="cls-2" d="m1745.11,1382.48c48.1-27.19,80.67-78.78,80.67-137.86,0-87.28-71.01-158.28-158.28-158.28s-158.28,71-158.28,158.28c0,59.08,32.56,110.68,80.67,137.86-111.04,33.42-192.17,136.57-192.17,258.36,0,8.79,7.13,15.92,15.92,15.92l331.48-274.28Z"/><path class="cls-2" d="m1742.61,1379.98c48.1-27.19,80.67-78.78,80.67-137.86,0-87.28-71.01-158.28-158.28-158.28s-158.28,71-158.28,158.28c0,59.08,32.56,110.68,80.67,137.86-111.04,33.42-192.17,136.57-192.17,258.36,0,8.79,7.13,15.92,15.92,15.92l331.48-274.28Z"/><path class="cls-2" d="m1740.11,1377.48c48.1-27.19,80.67-78.78,80.67-137.86,0-87.28-71.01-158.28-158.28-158.28s-158.28,71-158.28,158.28c0,59.08,32.56,110.68,80.67,137.86-111.04,33.42-192.17,136.57-192.17,258.36,0,8.79,7.13,15.92,15.92,15.92l331.48-274.28Z"/><path class="cls-2" d="m1737.61,1374.98c48.1-27.19,80.67-78.78,80.67-137.86,0-87.28-71.01-158.28-158.28-158.28s-158.28,71-158.28,158.28c0,59.08,32.56,110.68,80.67,137.86-111.04,33.42-192.17,136.57-192.17,258.36,0,8.79,7.13,15.92,15.92,15.92l331.48-274.28Z"/><path class="cls-2" d="m1735.11,1372.48c48.1-27.19,80.67-78.78,80.67-137.86,0-87.28-71.01-158.28-158.28-158.28s-158.28,71-158.28,158.28c0,59.08,32.56,110.68,80.67,137.86-111.04,33.42-192.17,136.57-192.17,258.36,0,8.79,7.13,15.92,15.92,15.92l331.48-274.28Z"/><path class="cls-2" d="m1732.61,1369.98c48.1-27.19,80.67-78.78,80.67-137.86,0-87.28-71.01-158.28-158.28-158.28s-158.28,71-158.28,158.28c0,59.08,32.56,110.68,80.67,137.86-111.04,33.42-192.17,136.57-192.17,258.36,0,8.79,7.13,15.92,15.92,15.92l331.48-274.28Z"/><path class="cls-2" d="m1730.11,1367.48c48.1-27.19,80.67-78.78,80.67-137.86,0-87.28-71.01-158.28-158.28-158.28s-158.28,71-158.28,158.28c0,59.08,32.56,110.68,80.67,137.86-111.04,33.42-192.17,136.57-192.17,258.36,0,8.79,7.13,15.92,15.92,15.92l331.48-274.28Z"/><path class="cls-2" d="m1727.61,1364.98c48.1-27.19,80.67-78.78,80.67-137.86,0-87.28-71.01-158.28-158.28-158.28s-158.28,71-158.28,158.28c0,59.08,32.56,110.68,80.67,137.86-111.04,33.42-192.17,136.57-192.17,258.36,0,8.79,7.13,15.92,15.92,15.92l331.48-274.28Z"/><path class="cls-2" d="m1725.11,1362.48c48.1-27.19,80.67-78.78,80.67-137.86,0-87.28-71.01-158.28-158.28-158.28s-158.28,71-158.28,158.28c0,59.08,32.56,110.68,80.67,137.86-111.04,33.42-192.17,136.57-192.17,258.36,0,8.79,7.13,15.92,15.92,15.92l331.48-274.28Z"/><path class="cls-2" d="m1722.61,1359.98c48.1-27.19,80.67-78.78,80.67-137.86,0-87.28-71.01-158.28-158.28-158.28s-158.28,71-158.28,158.28c0,59.08,32.56,110.68,80.67,137.86-111.04,33.42-192.17,136.57-192.17,258.36,0,8.79,7.13,15.92,15.92,15.92l331.48-274.28Z"/><path class="cls-2" d="m1720.11,1357.48c48.1-27.19,80.67-78.78,80.67-137.86,0-87.28-71.01-158.28-158.28-158.28s-158.28,71-158.28,158.28c0,59.08,32.56,110.68,80.67,137.86-111.04,33.42-192.17,136.57-192.17,258.36,0,8.79,7.13,15.92,15.92,15.92l331.48-274.28Z"/><path class="cls-2" d="m1717.61,1354.98c48.1-27.19,80.67-78.78,80.67-137.86,0-87.28-71.01-158.28-158.28-158.28s-158.28,71-158.28,158.28c0,59.08,32.56,110.68,80.67,137.86-111.04,33.42-192.17,136.57-192.17,258.36,0,8.79,7.13,15.92,15.92,15.92l331.48-274.28Z"/><path class="cls-2" d="m1715.11,1352.48c48.1-27.19,80.67-78.78,80.67-137.86,0-87.28-71.01-158.28-158.28-158.28s-158.28,71-158.28,158.28c0,59.08,32.56,110.68,80.67,137.86-111.04,33.42-192.17,136.57-192.17,258.36,0,8.79,7.13,15.92,15.92,15.92l331.48-274.28Z"/><path class="cls-2" d="m1712.61,1349.98c48.1-27.19,80.67-78.78,80.67-137.86,0-87.28-71.01-158.28-158.28-158.28s-158.28,71-158.28,158.28c0,59.08,32.56,110.68,80.67,137.86-111.04,33.42-192.17,136.57-192.17,258.36,0,8.79,7.13,15.92,15.92,15.92l331.48-274.28Z"/><path class="cls-2" d="m1710.11,1347.48c48.1-27.19,80.67-78.78,80.67-137.86,0-87.28-71.01-158.28-158.28-158.28s-158.28,71-158.28,158.28c0,59.08,32.56,110.68,80.67,137.86-111.04,33.42-192.17,136.57-192.17,258.36,0,8.79,7.13,15.92,15.92,15.92l331.48-274.28Z"/><path class="cls-2" d="m1707.61,1344.98c48.1-27.19,80.67-78.78,80.67-137.86,0-87.28-71.01-158.28-158.28-158.28s-158.28,71-158.28,158.28c0,59.08,32.56,110.68,80.67,137.86-111.04,33.42-192.17,136.57-192.17,258.36,0,8.79,7.13,15.92,15.92,15.92l331.48-274.28Z"/><path class="cls-2" d="m1705.11,1342.48c48.1-27.19,80.67-78.78,80.67-137.86,0-87.28-71.01-158.28-158.28-158.28s-158.28,71-158.28,158.28c0,59.08,32.56,110.68,80.67,137.86-111.04,33.42-192.17,136.57-192.17,258.36,0,8.79,7.13,15.92,15.92,15.92l331.48-274.28Z"/><path class="cls-2" d="m1702.61,1339.98c48.1-27.19,80.67-78.78,80.67-137.86,0-87.28-71.01-158.28-158.28-158.28s-158.28,71-158.28,158.28c0,59.08,32.56,110.68,80.67,137.86-111.04,33.42-192.17,136.57-192.17,258.36,0,8.79,7.13,15.92,15.92,15.92l331.48-274.28Z"/><path class="cls-2" d="m1700.11,1337.48c48.1-27.19,80.67-78.78,80.67-137.86,0-87.28-71.01-158.28-158.28-158.28s-158.28,71-158.28,158.28c0,59.08,32.56,110.68,80.67,137.86-111.04,33.42-192.17,136.57-192.17,258.36,0,8.79,7.13,15.92,15.92,15.92l331.48-274.28Z"/><path class="cls-2" d="m1697.61,1334.98c48.1-27.19,80.67-78.78,80.67-137.86,0-87.28-71.01-158.28-158.28-158.28s-158.28,71-158.28,158.28c0,59.08,32.56,110.68,80.67,137.86-111.04,33.42-192.17,136.57-192.17,258.36,0,8.79,7.13,15.92,15.92,15.92l331.48-274.28Z"/><path class="cls-2" d="m1695.11,1332.48c48.1-27.19,80.67-78.78,80.67-137.86,0-87.28-71.01-158.28-158.28-158.28s-158.28,71-158.28,158.28c0,59.08,32.56,110.68,80.67,137.86-111.04,33.42-192.17,136.57-192.17,258.36,0,8.79,7.13,15.92,15.92,15.92l331.48-274.28Z"/><path class="cls-2" d="m1692.61,1329.98c48.1-27.19,80.67-78.78,80.67-137.86,0-87.28-71.01-158.28-158.28-158.28s-158.28,71-158.28,158.28c0,59.08,32.56,110.68,80.67,137.86-111.04,33.42-192.17,136.57-192.17,258.36,0,8.79,7.13,15.92,15.92,15.92l331.48-274.28Z"/><path class="cls-2" d="m1690.11,1327.48c48.1-27.19,80.67-78.78,80.67-137.86,0-87.28-71.01-158.28-158.28-158.28s-158.28,71-158.28,158.28c0,59.08,32.56,110.68,80.67,137.86-111.04,33.42-192.17,136.57-192.17,258.36,0,8.79,7.13,15.92,15.92,15.92l331.48-274.28Z"/><path class="cls-2" d="m1687.61,1324.98c48.1-27.19,80.67-78.78,80.67-137.86,0-87.28-71.01-158.28-158.28-158.28s-158.28,71-158.28,158.28c0,59.08,32.56,110.68,80.67,137.86-111.04,33.42-192.17,136.57-192.17,258.36,0,8.79,7.13,15.92,15.92,15.92l331.48-274.28Z"/><path class="cls-2" d="m1685.11,1322.48c48.1-27.19,80.67-78.78,80.67-137.86,0-87.28-71.01-158.28-158.28-158.28s-158.28,71-158.28,158.28c0,59.08,32.56,110.68,80.67,137.86-111.04,33.42-192.17,136.57-192.17,258.36,0,8.79,7.13,15.92,15.92,15.92l331.48-274.28Z"/><path class="cls-2" d="m1682.61,1319.98c48.1-27.19,80.67-78.78,80.67-137.86,0-87.28-71.01-158.28-158.28-158.28s-158.28,71-158.28,158.28c0,59.08,32.56,110.68,80.67,137.86-111.04,33.42-192.17,136.57-192.17,258.36,0,8.79,7.13,15.92,15.92,15.92l331.48-274.28Z"/><path class="cls-2" d="m1872.29,1575.83c0-121.79-81.14-224.94-192.18-258.36,48.1-27.19,80.67-78.78,80.67-137.86,0-87.28-71.01-158.28-158.28-158.28s-158.28,71-158.28,158.28c0,59.08,32.56,110.68,80.67,137.86-111.04,33.42-192.17,136.57-192.17,258.36,0,8.79,7.13,15.92,15.92,15.92l523.65-15.92Z"/><path class="cls-2" d="m1869.79,1573.33c0-121.79-81.14-224.94-192.18-258.36,48.1-27.19,80.67-78.78,80.67-137.86,0-87.28-71.01-158.28-158.28-158.28s-158.28,71-158.28,158.28c0,59.08,32.56,110.68,80.67,137.86-111.04,33.42-192.17,136.57-192.17,258.36,0,8.79,7.13,15.92,15.92,15.92l523.65-15.92Z"/><path class="cls-2" d="m1867.29,1570.83c0-121.79-81.14-224.94-192.18-258.36,48.1-27.19,80.67-78.78,80.67-137.86,0-87.28-71.01-158.28-158.28-158.28s-158.28,71-158.28,158.28c0,59.08,32.56,110.68,80.67,137.86-111.04,33.42-192.17,136.57-192.17,258.36,0,8.79,7.13,15.92,15.92,15.92l523.65-15.92Z"/><path class="cls-2" d="m1864.79,1568.33c0-121.79-81.14-224.94-192.18-258.36,48.1-27.19,80.67-78.78,80.67-137.86,0-87.28-71.01-158.28-158.28-158.28s-158.28,71-158.28,158.28c0,59.08,32.56,110.68,80.67,137.86-111.04,33.42-192.17,136.57-192.17,258.36,0,8.79,7.13,15.92,15.92,15.92l523.65-15.92Z"/><path class="cls-2" d="m1862.29,1565.83c0-121.79-81.14-224.94-192.18-258.36,48.1-27.19,80.67-78.78,80.67-137.86,0-87.28-71.01-158.28-158.28-158.28s-158.28,71-158.28,158.28c0,59.08,32.56,110.68,80.67,137.86-111.04,33.42-192.17,136.57-192.17,258.36,0,8.79,7.13,15.92,15.92,15.92l523.65-15.92Z"/><path class="cls-2" d="m1859.79,1563.33c0-121.79-81.14-224.94-192.18-258.36,48.1-27.19,80.67-78.78,80.67-137.86,0-87.28-71.01-158.28-158.28-158.28s-158.28,71-158.28,158.28c0,59.08,32.56,110.68,80.67,137.86-111.04,33.42-192.17,136.57-192.17,258.36,0,8.79,7.13,15.92,15.92,15.92l523.65-15.92Z"/><path class="cls-2" d="m1665.11,1302.48c48.1-27.19,80.67-78.78,80.67-137.86,0-87.28-71.01-158.28-158.28-158.28s-158.28,71-158.28,158.28c0,59.08,32.56,110.68,80.67,137.86-111.04,33.42-192.17,136.57-192.17,258.36,0,8.79,7.13,15.92,15.92,15.92h507.73c8.79,0,15.92-7.13,15.92-15.92,0-121.79-81.14-224.94-192.18-258.36Z"/><path class="cls-2" d="m1662.61,1299.98c48.1-27.19,80.67-78.78,80.67-137.86,0-87.28-71.01-158.28-158.28-158.28s-158.28,71-158.28,158.28c0,59.08,32.56,110.68,80.67,137.86-111.04,33.42-192.17,136.57-192.17,258.36,0,8.79,7.13,15.92,15.92,15.92h507.73c8.79,0,15.92-7.13,15.92-15.92,0-121.79-81.14-224.94-192.18-258.36Z"/><path class="cls-2" d="m1660.11,1297.48c48.1-27.19,80.67-78.78,80.67-137.86,0-87.28-71.01-158.28-158.28-158.28s-158.28,71-158.28,158.28c0,59.08,32.56,110.68,80.67,137.86-111.04,33.42-192.17,136.57-192.17,258.36,0,8.79,7.13,15.92,15.92,15.92h507.73c8.79,0,15.92-7.13,15.92-15.92,0-121.79-81.14-224.94-192.18-258.36Z"/><path class="cls-2" d="m1657.61,1294.98c48.1-27.19,80.67-78.78,80.67-137.86,0-87.28-71.01-158.28-158.28-158.28s-158.28,71-158.28,158.28c0,59.08,32.56,110.68,80.67,137.86-111.04,33.42-192.17,136.57-192.17,258.36,0,8.79,7.13,15.92,15.92,15.92h507.73c8.79,0,15.92-7.13,15.92-15.92,0-121.79-81.14-224.94-192.18-258.36Z"/><path class="cls-2" d="m1655.11,1292.48c48.1-27.19,80.67-78.78,80.67-137.86,0-87.28-71.01-158.28-158.28-158.28s-158.28,71-158.28,158.28c0,59.08,32.56,110.68,80.67,137.86-111.04,33.42-192.17,136.57-192.17,258.36,0,8.79,7.13,15.92,15.92,15.92h507.73c8.79,0,15.92-7.13,15.92-15.92,0-121.79-81.14-224.94-192.18-258.36Z"/><path class="cls-2" d="m1652.61,1289.98c48.1-27.19,80.67-78.78,80.67-137.86,0-87.28-71.01-158.28-158.28-158.28s-158.28,71-158.28,158.28c0,59.08,32.56,110.68,80.67,137.86-111.04,33.42-192.17,136.57-192.17,258.36,0,8.79,7.13,15.92,15.92,15.92h507.73c8.79,0,15.92-7.13,15.92-15.92,0-121.79-81.14-224.94-192.18-258.36Z"/><path class="cls-2" d="m1650.11,1287.48c48.1-27.19,80.67-78.78,80.67-137.86,0-87.28-71.01-158.28-158.28-158.28s-158.28,71-158.28,158.28c0,59.08,32.56,110.68,80.67,137.86-111.04,33.42-192.17,136.57-192.17,258.36,0,8.79,7.13,15.92,15.92,15.92h507.73c8.79,0,15.92-7.13,15.92-15.92,0-121.79-81.14-224.94-192.18-258.36Z"/><path class="cls-2" d="m1647.61,1284.98c48.1-27.19,80.67-78.78,80.67-137.86,0-87.28-71.01-158.28-158.28-158.28s-158.28,71-158.28,158.28c0,59.08,32.56,110.68,80.67,137.86-111.04,33.42-192.17,136.57-192.17,258.36,0,8.79,7.13,15.92,15.92,15.92h507.73c8.79,0,15.92-7.13,15.92-15.92,0-121.79-81.14-224.94-192.18-258.36Z"/><path class="cls-2" d="m1645.11,1282.48c48.1-27.19,80.67-78.78,80.67-137.86,0-87.28-71.01-158.28-158.28-158.28s-158.28,71-158.28,158.28c0,59.08,32.56,110.68,80.67,137.86-111.04,33.42-192.17,136.57-192.17,258.36,0,8.79,7.13,15.92,15.92,15.92h507.73c8.79,0,15.92-7.13,15.92-15.92,0-121.79-81.14-224.94-192.18-258.36Z"/><path class="cls-2" d="m1642.61,1279.98c48.1-27.19,80.67-78.78,80.67-137.86,0-87.28-71.01-158.28-158.28-158.28s-158.28,71-158.28,158.28c0,59.08,32.56,110.68,80.67,137.86-111.04,33.42-192.17,136.57-192.17,258.36,0,8.79,7.13,15.92,15.92,15.92h507.73c8.79,0,15.92-7.13,15.92-15.92,0-121.79-81.14-224.94-192.18-258.36Z"/><path class="cls-2" d="m1640.11,1277.48c48.1-27.19,80.67-78.78,80.67-137.86,0-87.28-71.01-158.28-158.28-158.28s-158.28,71-158.28,158.28c0,59.08,32.56,110.68,80.67,137.86-111.04,33.42-192.17,136.57-192.17,258.36,0,8.79,7.13,15.92,15.92,15.92h507.73c8.79,0,15.92-7.13,15.92-15.92,0-121.79-81.14-224.94-192.18-258.36Z"/><path class="cls-2" d="m1637.61,1274.98c48.1-27.19,80.67-78.78,80.67-137.86,0-87.28-71.01-158.28-158.28-158.28s-158.28,71-158.28,158.28c0,59.08,32.56,110.68,80.67,137.86-111.04,33.42-192.17,136.57-192.17,258.36,0,8.79,7.13,15.92,15.92,15.92h507.73c8.79,0,15.92-7.13,15.92-15.92,0-121.79-81.14-224.94-192.18-258.36Z"/><path class="cls-2" d="m1635.11,1272.48c48.1-27.19,80.67-78.78,80.67-137.86,0-87.28-71.01-158.28-158.28-158.28s-158.28,71-158.28,158.28c0,59.08,32.56,110.68,80.67,137.86-111.04,33.42-192.17,136.57-192.17,258.36,0,8.79,7.13,15.92,15.92,15.92h507.73c8.79,0,15.92-7.13,15.92-15.92,0-121.79-81.14-224.94-192.18-258.36Z"/><path class="cls-2" d="m1632.61,1269.98c48.1-27.19,80.67-78.78,80.67-137.86,0-87.28-71.01-158.28-158.28-158.28s-158.28,71-158.28,158.28c0,59.08,32.56,110.68,80.67,137.86-111.04,33.42-192.17,136.57-192.17,258.36,0,8.79,7.13,15.92,15.92,15.92h507.73c8.79,0,15.92-7.13,15.92-15.92,0-121.79-81.14-224.94-192.18-258.36Z"/><path class="cls-2" d="m1630.11,1267.48c48.1-27.19,80.67-78.78,80.67-137.86,0-87.28-71.01-158.28-158.28-158.28s-158.28,71-158.28,158.28c0,59.08,32.56,110.68,80.67,137.86-111.04,33.42-192.17,136.57-192.17,258.36,0,8.79,7.13,15.92,15.92,15.92h507.73c8.79,0,15.92-7.13,15.92-15.92,0-121.79-81.14-224.94-192.18-258.36Z"/><path class="cls-2" d="m1627.61,1264.98c48.1-27.19,80.67-78.78,80.67-137.86,0-87.28-71.01-158.28-158.28-158.28s-158.28,71-158.28,158.28c0,59.08,32.56,110.68,80.67,137.86-111.04,33.42-192.17,136.57-192.17,258.36,0,8.79,7.13,15.92,15.92,15.92h507.73c8.79,0,15.92-7.13,15.92-15.92,0-121.79-81.14-224.94-192.18-258.36Z"/><path class="cls-2" d="m1625.11,1262.48c48.1-27.19,80.67-78.78,80.67-137.86,0-87.28-71.01-158.28-158.28-158.28s-158.28,71-158.28,158.28c0,59.08,32.56,110.68,80.67,137.86-111.04,33.42-192.17,136.57-192.17,258.36,0,8.79,7.13,15.92,15.92,15.92h507.73c8.79,0,15.92-7.13,15.92-15.92,0-121.79-81.14-224.94-192.18-258.36Z"/><path class="cls-2" d="m1622.61,1259.98c48.1-27.19,80.67-78.78,80.67-137.86,0-87.28-71.01-158.28-158.28-158.28s-158.28,71-158.28,158.28c0,59.08,32.56,110.68,80.67,137.86-111.04,33.42-192.17,136.57-192.17,258.36,0,8.79,7.13,15.92,15.92,15.92h507.73c8.79,0,15.92-7.13,15.92-15.92,0-121.79-81.14-224.94-192.18-258.36Z"/><path class="cls-2" d="m1620.11,1257.48c48.1-27.19,80.67-78.78,80.67-137.86,0-87.28-71.01-158.28-158.28-158.28s-158.28,71-158.28,158.28c0,59.08,32.56,110.68,80.67,137.86-111.04,33.42-192.17,136.57-192.17,258.36,0,8.79,7.13,15.92,15.92,15.92h507.73c8.79,0,15.92-7.13,15.92-15.92,0-121.79-81.14-224.94-192.18-258.36Z"/><path class="cls-2" d="m1617.61,1254.98c48.1-27.19,80.67-78.78,80.67-137.86,0-87.28-71.01-158.28-158.28-158.28s-158.28,71-158.28,158.28c0,59.08,32.56,110.68,80.67,137.86-111.04,33.42-192.17,136.57-192.17,258.36,0,8.79,7.13,15.92,15.92,15.92h507.73c8.79,0,15.92-7.13,15.92-15.92,0-121.79-81.14-224.94-192.18-258.36Z"/><path class="cls-2" d="m1615.11,1252.48c48.1-27.19,80.67-78.78,80.67-137.86,0-87.28-71.01-158.28-158.28-158.28s-158.28,71-158.28,158.28c0,59.08,32.56,110.68,80.67,137.86-111.04,33.42-192.17,136.57-192.17,258.36,0,8.79,7.13,15.92,15.92,15.92h507.73c8.79,0,15.92-7.13,15.92-15.92,0-121.79-81.14-224.94-192.18-258.36Z"/><path class="cls-2" d="m1612.61,1249.98c48.1-27.19,80.67-78.78,80.67-137.86,0-87.28-71.01-158.28-158.28-158.28s-158.28,71-158.28,158.28c0,59.08,32.56,110.68,80.67,137.86-111.04,33.42-192.17,136.57-192.17,258.36,0,8.79,7.13,15.92,15.92,15.92h507.73c8.79,0,15.92-7.13,15.92-15.92,0-121.79-81.14-224.94-192.18-258.36Z"/><path class="cls-2" d="m1610.11,1247.48c48.1-27.19,80.67-78.78,80.67-137.86,0-87.28-71.01-158.28-158.28-158.28s-158.28,71-158.28,158.28c0,59.08,32.56,110.68,80.67,137.86-111.04,33.42-192.17,136.57-192.17,258.36,0,8.79,7.13,15.92,15.92,15.92h507.73c8.79,0,15.92-7.13,15.92-15.92,0-121.79-81.14-224.94-192.18-258.36Z"/><path class="cls-2" d="m1607.61,1244.98c48.1-27.19,80.67-78.78,80.67-137.86,0-87.28-71.01-158.28-158.28-158.28s-158.28,71-158.28,158.28c0,59.08,32.56,110.68,80.67,137.86-111.04,33.42-192.17,136.57-192.17,258.36,0,8.79,7.13,15.92,15.92,15.92h507.73c8.79,0,15.92-7.13,15.92-15.92,0-121.79-81.14-224.94-192.18-258.36Z"/><path class="cls-2" d="m1605.11,1242.48c48.1-27.19,80.67-78.78,80.67-137.86,0-87.28-71.01-158.28-158.28-158.28s-158.28,71-158.28,158.28c0,59.08,32.56,110.68,80.67,137.86-111.04,33.42-192.17,136.57-192.17,258.36,0,8.79,7.13,15.92,15.92,15.92h507.73c8.79,0,15.92-7.13,15.92-15.92,0-121.79-81.14-224.94-192.18-258.36Z"/><path class="cls-2" d="m1602.61,1239.98c48.1-27.19,80.67-78.78,80.67-137.86,0-87.28-71.01-158.28-158.28-158.28s-158.28,71-158.28,158.28c0,59.08,32.56,110.68,80.67,137.86-111.04,33.42-192.17,136.57-192.17,258.36,0,8.79,7.13,15.92,15.92,15.92h507.73c8.79,0,15.92-7.13,15.92-15.92,0-121.79-81.14-224.94-192.18-258.36Z"/><path class="cls-2" d="m1600.11,1237.48c48.1-27.19,80.67-78.78,80.67-137.86,0-87.28-71.01-158.28-158.28-158.28s-158.28,71-158.28,158.28c0,59.08,32.56,110.68,80.67,137.86-111.04,33.42-192.17,136.57-192.17,258.36,0,8.79,7.13,15.92,15.92,15.92h507.73c8.79,0,15.92-7.13,15.92-15.92,0-121.79-81.14-224.94-192.18-258.36Z"/><path class="cls-2" d="m1597.61,1234.98c48.1-27.19,80.67-78.78,80.67-137.86,0-87.28-71.01-158.28-158.28-158.28s-158.28,71-158.28,158.28c0,59.08,32.56,110.68,80.67,137.86-111.04,33.42-192.17,136.57-192.17,258.36,0,8.79,7.13,15.92,15.92,15.92h507.73c8.79,0,15.92-7.13,15.92-15.92,0-121.79-81.14-224.94-192.18-258.36Z"/><path class="cls-2" d="m1595.11,1232.48c48.1-27.19,80.67-78.78,80.67-137.86,0-87.28-71.01-158.28-158.28-158.28s-158.28,71-158.28,158.28c0,59.08,32.56,110.68,80.67,137.86-111.04,33.42-192.17,136.57-192.17,258.36,0,8.79,7.13,15.92,15.92,15.92h507.73c8.79,0,15.92-7.13,15.92-15.92,0-121.79-81.14-224.94-192.18-258.36Z"/><path class="cls-2" d="m1592.61,1229.98c48.1-27.19,80.67-78.78,80.67-137.86,0-87.28-71.01-158.28-158.28-158.28s-158.28,71-158.28,158.28c0,59.08,32.56,110.68,80.67,137.86-111.04,33.42-192.17,136.57-192.17,258.36,0,8.79,7.13,15.92,15.92,15.92h507.73c8.79,0,15.92-7.13,15.92-15.92,0-121.79-81.14-224.94-192.18-258.36Z"/><path class="cls-2" d="m1590.11,1227.48c48.1-27.19,80.67-78.78,80.67-137.86,0-87.28-71.01-158.28-158.28-158.28s-158.28,71-158.28,158.28c0,59.08,32.56,110.68,80.67,137.86-111.04,33.42-192.17,136.57-192.17,258.36,0,8.79,7.13,15.92,15.92,15.92h507.73c8.79,0,15.92-7.13,15.92-15.92,0-121.79-81.14-224.94-192.18-258.36Z"/><path class="cls-2" d="m1587.61,1224.98c48.1-27.19,80.67-78.78,80.67-137.86,0-87.28-71.01-158.28-158.28-158.28s-158.28,71-158.28,158.28c0,59.08,32.56,110.68,80.67,137.86-111.04,33.42-192.17,136.57-192.17,258.36,0,8.79,7.13,15.92,15.92,15.92h507.73c8.79,0,15.92-7.13,15.92-15.92,0-121.79-81.14-224.94-192.18-258.36Z"/><path class="cls-2" d="m1585.11,1222.48c48.1-27.19,80.67-78.78,80.67-137.86,0-87.28-71.01-158.28-158.28-158.28s-158.28,71-158.28,158.28c0,59.08,32.56,110.68,80.67,137.86-111.04,33.42-192.17,136.57-192.17,258.36,0,8.79,7.13,15.92,15.92,15.92h507.73c8.79,0,15.92-7.13,15.92-15.92,0-121.79-81.14-224.94-192.18-258.36Z"/><path class="cls-2" d="m1582.61,1219.98c48.1-27.19,80.67-78.78,80.67-137.86,0-87.28-71.01-158.28-158.28-158.28s-158.28,71-158.28,158.28c0,59.08,32.56,110.68,80.67,137.86-111.04,33.42-192.17,136.57-192.17,258.36,0,8.79,7.13,15.92,15.92,15.92h507.73c8.79,0,15.92-7.13,15.92-15.92,0-121.79-81.14-224.94-192.18-258.36Z"/><path class="cls-2" d="m1580.11,1217.48c48.1-27.19,80.67-78.78,80.67-137.86,0-87.28-71.01-158.28-158.28-158.28s-158.28,71-158.28,158.28c0,59.08,32.56,110.68,80.67,137.86-111.04,33.42-192.17,136.57-192.17,258.36,0,8.79,7.13,15.92,15.92,15.92h507.73c8.79,0,15.92-7.13,15.92-15.92,0-121.79-81.14-224.94-192.18-258.36Z"/><path class="cls-2" d="m1577.61,1214.98c48.1-27.19,80.67-78.78,80.67-137.86,0-87.28-71.01-158.28-158.28-158.28s-158.28,71-158.28,158.28c0,59.08,32.56,110.68,80.67,137.86-111.04,33.42-192.17,136.57-192.17,258.36,0,8.79,7.13,15.92,15.92,15.92h507.73c8.79,0,15.92-7.13,15.92-15.92,0-121.79-81.14-224.94-192.18-258.36Z"/><path class="cls-2" d="m1575.11,1212.48c48.1-27.19,80.67-78.78,80.67-137.86,0-87.28-71.01-158.28-158.28-158.28s-158.28,71-158.28,158.28c0,59.08,32.56,110.68,80.67,137.86-111.04,33.42-192.17,136.57-192.17,258.36,0,8.79,7.13,15.92,15.92,15.92h507.73c8.79,0,15.92-7.13,15.92-15.92,0-121.79-81.14-224.94-192.18-258.36Z"/><path class="cls-2" d="m1572.61,1209.98c48.1-27.19,80.67-78.78,80.67-137.86,0-87.28-71.01-158.28-158.28-158.28s-158.28,71-158.28,158.28c0,59.08,32.56,110.68,80.67,137.86-111.04,33.42-192.17,136.57-192.17,258.36,0,8.79,7.13,15.92,15.92,15.92h507.73c8.79,0,15.92-7.13,15.92-15.92,0-121.79-81.14-224.94-192.18-258.36Z"/><path class="cls-2" d="m1570.11,1207.48c48.1-27.19,80.67-78.78,80.67-137.86,0-87.28-71.01-158.28-158.28-158.28s-158.28,71-158.28,158.28c0,59.08,32.56,110.68,80.67,137.86-111.04,33.42-192.17,136.57-192.17,258.36,0,8.79,7.13,15.92,15.92,15.92h507.73c8.79,0,15.92-7.13,15.92-15.92,0-121.79-81.14-224.94-192.18-258.36Z"/><path class="cls-2" d="m1567.61,1204.98c48.1-27.19,80.67-78.78,80.67-137.86,0-87.28-71.01-158.28-158.28-158.28s-158.28,71-158.28,158.28c0,59.08,32.56,110.68,80.67,137.86-111.04,33.42-192.17,136.57-192.17,258.36,0,8.79,7.13,15.92,15.92,15.92h507.73c8.79,0,15.92-7.13,15.92-15.92,0-121.79-81.14-224.94-192.18-258.36Z"/><path class="cls-2" d="m1565.11,1202.48c48.1-27.19,80.67-78.78,80.67-137.86,0-87.28-71.01-158.28-158.28-158.28s-158.28,71-158.28,158.28c0,59.08,32.56,110.68,80.67,137.86-111.04,33.42-192.17,136.57-192.17,258.36,0,8.79,7.13,15.92,15.92,15.92h507.73c8.79,0,15.92-7.13,15.92-15.92,0-121.79-81.14-224.94-192.18-258.36Z"/><path class="cls-2" d="m1562.61,1199.98c48.1-27.19,80.67-78.78,80.67-137.86,0-87.28-71.01-158.28-158.28-158.28s-158.28,71-158.28,158.28c0,59.08,32.56,110.68,80.67,137.86-111.04,33.42-192.17,136.57-192.17,258.36,0,8.79,7.13,15.92,15.92,15.92h507.73c8.79,0,15.92-7.13,15.92-15.92,0-121.79-81.14-224.94-192.18-258.36Z"/><path class="cls-2" d="m1560.11,1197.48c48.1-27.19,80.67-78.78,80.67-137.86,0-87.28-71.01-158.28-158.28-158.28s-158.28,71-158.28,158.28c0,59.08,32.56,110.68,80.67,137.86-111.04,33.42-192.17,136.57-192.17,258.36,0,8.79,7.13,15.92,15.92,15.92h507.73c8.79,0,15.92-7.13,15.92-15.92,0-121.79-81.14-224.94-192.18-258.36Z"/><path class="cls-2" d="m1557.61,1194.98c48.1-27.19,80.67-78.78,80.67-137.86,0-87.28-71.01-158.28-158.28-158.28s-158.28,71-158.28,158.28c0,59.08,32.56,110.68,80.67,137.86-111.04,33.42-192.17,136.57-192.17,258.36,0,8.79,7.13,15.92,15.92,15.92h507.73c8.79,0,15.92-7.13,15.92-15.92,0-121.79-81.14-224.94-192.18-258.36Z"/><path class="cls-2" d="m1555.11,1192.48c48.1-27.19,80.67-78.78,80.67-137.86,0-87.28-71.01-158.28-158.28-158.28s-158.28,71-158.28,158.28c0,59.08,32.56,110.68,80.67,137.86-111.04,33.42-192.17,136.57-192.17,258.36,0,8.79,7.13,15.92,15.92,15.92h507.73c8.79,0,15.92-7.13,15.92-15.92,0-121.79-81.14-224.94-192.18-258.36Z"/><path class="cls-2" d="m1552.61,1189.98c48.1-27.19,80.67-78.78,80.67-137.86,0-87.28-71.01-158.28-158.28-158.28s-158.28,71-158.28,158.28c0,59.08,32.56,110.68,80.67,137.86-111.04,33.42-192.17,136.57-192.17,258.36,0,8.79,7.13,15.92,15.92,15.92h507.73c8.79,0,15.92-7.13,15.92-15.92,0-121.79-81.14-224.94-192.18-258.36Z"/><path class="cls-2" d="m1550.11,1187.48c48.1-27.19,80.67-78.78,80.67-137.86,0-87.28-71.01-158.28-158.28-158.28s-158.28,71-158.28,158.28c0,59.08,32.56,110.68,80.67,137.86-111.04,33.42-192.17,136.57-192.17,258.36,0,8.79,7.13,15.92,15.92,15.92h507.73c8.79,0,15.92-7.13,15.92-15.92,0-121.79-81.14-224.94-192.18-258.36Z"/><path class="cls-2" d="m1547.61,1184.98c48.1-27.19,80.67-78.78,80.67-137.86,0-87.28-71.01-158.28-158.28-158.28s-158.28,71-158.28,158.28c0,59.08,32.56,110.68,80.67,137.86-111.04,33.42-192.17,136.57-192.17,258.36,0,8.79,7.13,15.92,15.92,15.92h507.73c8.79,0,15.92-7.13,15.92-15.92,0-121.79-81.14-224.94-192.18-258.36Z"/><path class="cls-2" d="m1545.11,1182.48c48.1-27.19,80.67-78.78,80.67-137.86,0-87.28-71.01-158.28-158.28-158.28s-158.28,71-158.28,158.28c0,59.08,32.56,110.68,80.67,137.86-111.04,33.42-192.17,136.57-192.17,258.36,0,8.79,7.13,15.92,15.92,15.92h507.73c8.79,0,15.92-7.13,15.92-15.92,0-121.79-81.14-224.94-192.18-258.36Z"/><path class="cls-2" d="m1542.61,1179.98c48.1-27.19,80.67-78.78,80.67-137.86,0-87.28-71.01-158.28-158.28-158.28s-158.28,71-158.28,158.28c0,59.08,32.56,110.68,80.67,137.86-111.04,33.42-192.17,136.57-192.17,258.36,0,8.79,7.13,15.92,15.92,15.92h507.73c8.79,0,15.92-7.13,15.92-15.92,0-121.79-81.14-224.94-192.18-258.36Z"/><path class="cls-2" d="m1540.11,1177.48c48.1-27.19,80.67-78.78,80.67-137.86,0-87.28-71.01-158.28-158.28-158.28s-158.28,71-158.28,158.28c0,59.08,32.56,110.68,80.67,137.86-111.04,33.42-192.17,136.57-192.17,258.36,0,8.79,7.13,15.92,15.92,15.92h507.73c8.79,0,15.92-7.13,15.92-15.92,0-121.79-81.14-224.94-192.18-258.36Z"/><path class="cls-2" d="m1537.61,1174.98c48.1-27.19,80.67-78.78,80.67-137.86,0-87.28-71.01-158.28-158.28-158.28s-158.28,71-158.28,158.28c0,59.08,32.56,110.68,80.67,137.86-111.04,33.42-192.17,136.57-192.17,258.36,0,8.79,7.13,15.92,15.92,15.92h507.73c8.79,0,15.92-7.13,15.92-15.92,0-121.79-81.14-224.94-192.18-258.36Z"/><path class="cls-2" d="m1535.11,1172.48c48.1-27.19,80.67-78.78,80.67-137.86,0-87.28-71.01-158.28-158.28-158.28s-158.28,71-158.28,158.28c0,59.08,32.56,110.68,80.67,137.86-111.04,33.42-192.17,136.57-192.17,258.36,0,8.79,7.13,15.92,15.92,15.92h507.73c8.79,0,15.92-7.13,15.92-15.92,0-121.79-81.14-224.94-192.18-258.36Z"/><path class="cls-2" d="m1532.61,1169.98c48.1-27.19,80.67-78.78,80.67-137.86,0-87.28-71.01-158.28-158.28-158.28s-158.28,71-158.28,158.28c0,59.08,32.56,110.68,80.67,137.86-111.04,33.42-192.17,136.57-192.17,258.36,0,8.79,7.13,15.92,15.92,15.92h507.73c8.79,0,15.92-7.13,15.92-15.92,0-121.79-81.14-224.94-192.18-258.36Z"/><path class="cls-2" d="m1530.11,1167.48c48.1-27.19,80.67-78.78,80.67-137.86,0-87.28-71.01-158.28-158.28-158.28s-158.28,71-158.28,158.28c0,59.08,32.56,110.68,80.67,137.86-111.04,33.42-192.17,136.57-192.17,258.36,0,8.79,7.13,15.92,15.92,15.92h507.73c8.79,0,15.92-7.13,15.92-15.92,0-121.79-81.14-224.94-192.18-258.36Z"/><path class="cls-2" d="m1527.61,1164.98c48.1-27.19,80.67-78.78,80.67-137.86,0-87.28-71.01-158.28-158.28-158.28s-158.28,71-158.28,158.28c0,59.08,32.56,110.68,80.67,137.86-111.04,33.42-192.17,136.57-192.17,258.36,0,8.79,7.13,15.92,15.92,15.92h507.73c8.79,0,15.92-7.13,15.92-15.92,0-121.79-81.14-224.94-192.18-258.36Z"/><path class="cls-2" d="m1525.11,1162.48c48.1-27.19,80.67-78.78,80.67-137.86,0-87.28-71.01-158.28-158.28-158.28s-158.28,71-158.28,158.28c0,59.08,32.56,110.68,80.67,137.86-111.04,33.42-192.17,136.57-192.17,258.36,0,8.79,7.13,15.92,15.92,15.92h507.73c8.79,0,15.92-7.13,15.92-15.92,0-121.79-81.14-224.94-192.18-258.36Z"/><path class="cls-2" d="m1522.61,1159.98c48.1-27.19,80.67-78.78,80.67-137.86,0-87.28-71.01-158.28-158.28-158.28s-158.28,71-158.28,158.28c0,59.08,32.56,110.68,80.67,137.86-111.04,33.42-192.17,136.57-192.17,258.36,0,8.79,7.13,15.92,15.92,15.92h507.73c8.79,0,15.92-7.13,15.92-15.92,0-121.79-81.14-224.94-192.18-258.36Z"/><path class="cls-2" d="m1520.11,1157.48c48.1-27.19,80.67-78.78,80.67-137.86,0-87.28-71.01-158.28-158.28-158.28s-158.28,71-158.28,158.28c0,59.08,32.56,110.68,80.67,137.86-111.04,33.42-192.17,136.57-192.17,258.36,0,8.79,7.13,15.92,15.92,15.92h507.73c8.79,0,15.92-7.13,15.92-15.92,0-121.79-81.14-224.94-192.18-258.36Z"/><path class="cls-2" d="m1517.61,1154.98c48.1-27.19,80.67-78.78,80.67-137.86,0-87.28-71.01-158.28-158.28-158.28s-158.28,71-158.28,158.28c0,59.08,32.56,110.68,80.67,137.86-111.04,33.42-192.17,136.57-192.17,258.36,0,8.79,7.13,15.92,15.92,15.92h507.73c8.79,0,15.92-7.13,15.92-15.92,0-121.79-81.14-224.94-192.18-258.36Z"/><path class="cls-2" d="m1515.11,1152.48c48.1-27.19,80.67-78.78,80.67-137.86,0-87.28-71.01-158.28-158.28-158.28s-158.28,71-158.28,158.28c0,59.08,32.56,110.68,80.67,137.86-111.04,33.42-192.17,136.57-192.17,258.36,0,8.79,7.13,15.92,15.92,15.92h507.73c8.79,0,15.92-7.13,15.92-15.92,0-121.79-81.14-224.94-192.18-258.36Z"/><path class="cls-2" d="m1512.61,1149.98c48.1-27.19,80.67-78.78,80.67-137.86,0-87.28-71.01-158.28-158.28-158.28s-158.28,71-158.28,158.28c0,59.08,32.56,110.68,80.67,137.86-111.04,33.42-192.17,136.57-192.17,258.36,0,8.79,7.13,15.92,15.92,15.92h507.73c8.79,0,15.92-7.13,15.92-15.92,0-121.79-81.14-224.94-192.18-258.36Z"/><path class="cls-2" d="m1510.11,1147.48c48.1-27.19,80.67-78.78,80.67-137.86,0-87.28-71.01-158.28-158.28-158.28s-158.28,71-158.28,158.28c0,59.08,32.56,110.68,80.67,137.86-111.04,33.42-192.17,136.57-192.17,258.36,0,8.79,7.13,15.92,15.92,15.92h507.73c8.79,0,15.92-7.13,15.92-15.92,0-121.79-81.14-224.94-192.18-258.36Z"/><path class="cls-2" d="m1507.61,1144.98c48.1-27.19,80.67-78.78,80.67-137.86,0-87.28-71.01-158.28-158.28-158.28s-158.28,71-158.28,158.28c0,59.08,32.56,110.68,80.67,137.86-111.04,33.42-192.17,136.57-192.17,258.36,0,8.79,7.13,15.92,15.92,15.92h507.73c8.79,0,15.92-7.13,15.92-15.92,0-121.79-81.14-224.94-192.18-258.36Z"/><path class="cls-2" d="m1505.11,1142.48c48.1-27.19,80.67-78.78,80.67-137.86,0-87.28-71.01-158.28-158.28-158.28s-158.28,71-158.28,158.28c0,59.08,32.56,110.68,80.67,137.86-111.04,33.42-192.17,136.57-192.17,258.36,0,8.79,7.13,15.92,15.92,15.92h507.73c8.79,0,15.92-7.13,15.92-15.92,0-121.79-81.14-224.94-192.18-258.36Z"/><path class="cls-2" d="m1502.61,1139.98c48.1-27.19,80.67-78.78,80.67-137.86,0-87.28-71.01-158.28-158.28-158.28s-158.28,71-158.28,158.28c0,59.08,32.56,110.68,80.67,137.86-111.04,33.42-192.17,136.57-192.17,258.36,0,8.79,7.13,15.92,15.92,15.92h507.73c8.79,0,15.92-7.13,15.92-15.92,0-121.79-81.14-224.94-192.18-258.36Z"/><path class="cls-2" d="m1500.11,1137.48c48.1-27.19,80.67-78.78,80.67-137.87,0-87.28-71.01-158.28-158.28-158.28s-158.28,71-158.28,158.28c0,59.09,32.56,110.68,80.67,137.87-111.04,33.42-192.17,136.57-192.17,258.36,0,8.79,7.13,15.92,15.92,15.92h507.73c8.79,0,15.92-7.13,15.92-15.92,0-121.79-81.14-224.94-192.18-258.36Z"/><path class="cls-2" d="m1497.61,1134.98c48.1-27.19,80.67-78.78,80.67-137.87,0-87.28-71.01-158.28-158.28-158.28s-158.28,71-158.28,158.28c0,59.09,32.56,110.68,80.67,137.87-111.04,33.42-192.17,136.57-192.17,258.36,0,8.79,7.13,15.92,15.92,15.92h507.73c8.79,0,15.92-7.13,15.92-15.92,0-121.79-81.14-224.94-192.18-258.36Z"/><path class="cls-2" d="m1495.11,1132.48c48.1-27.19,80.67-78.78,80.67-137.87,0-87.28-71.01-158.28-158.28-158.28s-158.28,71-158.28,158.28c0,59.09,32.56,110.68,80.67,137.87-111.04,33.42-192.17,136.57-192.17,258.36,0,8.79,7.13,15.92,15.92,15.92h507.73c8.79,0,15.92-7.13,15.92-15.92,0-121.79-81.14-224.94-192.18-258.36Z"/><path class="cls-2" d="m1492.61,1129.98c48.1-27.19,80.67-78.78,80.67-137.87,0-87.28-71.01-158.28-158.28-158.28s-158.28,71-158.28,158.28c0,59.09,32.56,110.68,80.67,137.87-111.04,33.42-192.17,136.57-192.17,258.36,0,8.79,7.13,15.92,15.92,15.92h507.73c8.79,0,15.92-7.13,15.92-15.92,0-121.79-81.14-224.94-192.18-258.36Z"/><path class="cls-2" d="m1490.11,1127.48c48.1-27.19,80.67-78.78,80.67-137.87,0-87.28-71.01-158.28-158.28-158.28s-158.28,71-158.28,158.28c0,59.09,32.56,110.68,80.67,137.87-111.04,33.42-192.17,136.57-192.17,258.36,0,8.79,7.13,15.92,15.92,15.92h507.73c8.79,0,15.92-7.13,15.92-15.92,0-121.79-81.14-224.94-192.18-258.36Z"/><path class="cls-2" d="m1487.61,1124.98c48.1-27.19,80.67-78.78,80.67-137.87,0-87.28-71.01-158.28-158.28-158.28s-158.28,71-158.28,158.28c0,59.09,32.56,110.68,80.67,137.87-111.04,33.42-192.17,136.57-192.17,258.36,0,8.79,7.13,15.92,15.92,15.92h507.73c8.79,0,15.92-7.13,15.92-15.92,0-121.79-81.14-224.94-192.18-258.36Z"/><path class="cls-2" d="m1485.11,1122.48c48.1-27.19,80.67-78.78,80.67-137.87,0-87.28-71.01-158.28-158.28-158.28s-158.28,71-158.28,158.28c0,59.09,32.56,110.68,80.67,137.87-111.04,33.42-192.17,136.57-192.17,258.36,0,8.79,7.13,15.92,15.92,15.92h507.73c8.79,0,15.92-7.13,15.92-15.92,0-121.79-81.14-224.94-192.18-258.36Z"/><path class="cls-2" d="m1482.61,1119.98c48.1-27.19,80.67-78.78,80.67-137.87,0-87.28-71.01-158.28-158.28-158.28s-158.28,71-158.28,158.28c0,59.09,32.56,110.68,80.67,137.87-111.04,33.42-192.17,136.57-192.17,258.36,0,8.79,7.13,15.92,15.92,15.92h507.73c8.79,0,15.92-7.13,15.92-15.92,0-121.79-81.14-224.94-192.18-258.36Z"/><path class="cls-2" d="m1480.11,1117.48c48.1-27.19,80.67-78.78,80.67-137.87,0-87.28-71.01-158.28-158.28-158.28s-158.28,71-158.28,158.28c0,59.09,32.56,110.68,80.67,137.87-111.04,33.42-192.17,136.57-192.17,258.36,0,8.79,7.13,15.92,15.92,15.92h507.73c8.79,0,15.92-7.13,15.92-15.92,0-121.79-81.14-224.94-192.18-258.36Z"/><path class="cls-2" d="m1477.61,1114.98c48.1-27.19,80.67-78.78,80.67-137.87,0-87.28-71.01-158.28-158.28-158.28s-158.28,71-158.28,158.28c0,59.09,32.56,110.68,80.67,137.87-111.04,33.42-192.17,136.57-192.17,258.36,0,8.79,7.13,15.92,15.92,15.92h507.73c8.79,0,15.92-7.13,15.92-15.92,0-121.79-81.14-224.94-192.18-258.36Z"/><path class="cls-2" d="m1475.11,1112.48c48.1-27.19,80.67-78.78,80.67-137.87,0-87.28-71.01-158.28-158.28-158.28s-158.28,71-158.28,158.28c0,59.09,32.56,110.68,80.67,137.87-111.04,33.42-192.17,136.57-192.17,258.36,0,8.79,7.13,15.92,15.92,15.92h507.73c8.79,0,15.92-7.13,15.92-15.92,0-121.79-81.14-224.94-192.18-258.36Z"/><path class="cls-2" d="m1472.61,1109.98c48.1-27.19,80.67-78.78,80.67-137.87,0-87.28-71.01-158.28-158.28-158.28s-158.28,71-158.28,158.28c0,59.09,32.56,110.68,80.67,137.87-111.04,33.42-192.17,136.57-192.17,258.36,0,8.79,7.13,15.92,15.92,15.92h507.73c8.79,0,15.92-7.13,15.92-15.92,0-121.79-81.14-224.94-192.18-258.36Z"/><path class="cls-2" d="m1470.11,1107.48c48.1-27.19,80.67-78.78,80.67-137.87,0-87.28-71.01-158.28-158.28-158.28s-158.28,71-158.28,158.28c0,59.09,32.56,110.68,80.67,137.87-111.04,33.42-192.17,136.57-192.17,258.36,0,8.79,7.13,15.92,15.92,15.92h507.73c8.79,0,15.92-7.13,15.92-15.92,0-121.79-81.14-224.94-192.18-258.36Z"/><path class="cls-2" d="m1467.61,1104.98c48.1-27.19,80.67-78.78,80.67-137.87,0-87.28-71.01-158.28-158.28-158.28s-158.28,71-158.28,158.28c0,59.09,32.56,110.68,80.67,137.87-111.04,33.42-192.17,136.57-192.17,258.36,0,8.79,7.13,15.92,15.92,15.92h507.73c8.79,0,15.92-7.13,15.92-15.92,0-121.79-81.14-224.94-192.18-258.36Z"/><path class="cls-2" d="m1465.11,1102.48c48.1-27.19,80.67-78.78,80.67-137.87,0-87.28-71.01-158.28-158.28-158.28s-158.28,71-158.28,158.28c0,59.09,32.56,110.68,80.67,137.87-111.04,33.42-192.17,136.57-192.17,258.36,0,8.79,7.13,15.92,15.92,15.92h507.73c8.79,0,15.92-7.13,15.92-15.92,0-121.79-81.14-224.94-192.18-258.36Z"/><path class="cls-2" d="m1462.61,1099.98c48.1-27.19,80.67-78.78,80.67-137.87,0-87.28-71.01-158.28-158.28-158.28s-158.28,71-158.28,158.28c0,59.09,32.56,110.68,80.67,137.87-111.04,33.42-192.17,136.57-192.17,258.36,0,8.79,7.13,15.92,15.92,15.92h507.73c8.79,0,15.92-7.13,15.92-15.92,0-121.79-81.14-224.94-192.18-258.36Z"/><path class="cls-2" d="m1460.11,1097.48c48.1-27.19,80.67-78.78,80.67-137.87,0-87.28-71.01-158.28-158.28-158.28s-158.28,71-158.28,158.28c0,59.09,32.56,110.68,80.67,137.87-111.04,33.42-192.17,136.57-192.17,258.36,0,8.79,7.13,15.92,15.92,15.92h507.73c8.79,0,15.92-7.13,15.92-15.92,0-121.79-81.14-224.94-192.18-258.36Z"/><path class="cls-2" d="m1457.61,1094.98c48.1-27.19,80.67-78.78,80.67-137.87,0-87.28-71.01-158.28-158.28-158.28s-158.28,71-158.28,158.28c0,59.09,32.56,110.68,80.67,137.87-111.04,33.42-192.17,136.57-192.17,258.36,0,8.79,7.13,15.92,15.92,15.92h507.73c8.79,0,15.92-7.13,15.92-15.92,0-121.79-81.14-224.94-192.18-258.36Z"/><path class="cls-2" d="m1455.11,1092.48c48.1-27.19,80.67-78.78,80.67-137.87,0-87.28-71.01-158.28-158.28-158.28s-158.28,71-158.28,158.28c0,59.09,32.56,110.68,80.67,137.87-111.04,33.42-192.17,136.57-192.17,258.36,0,8.79,7.13,15.92,15.92,15.92h507.73c8.79,0,15.92-7.13,15.92-15.92,0-121.79-81.14-224.94-192.18-258.36Z"/><path class="cls-2" d="m1452.61,1089.98c48.1-27.19,80.67-78.78,80.67-137.87,0-87.28-71.01-158.28-158.28-158.28s-158.28,71-158.28,158.28c0,59.09,32.56,110.68,80.67,137.87-111.04,33.42-192.17,136.57-192.17,258.36,0,8.79,7.13,15.92,15.92,15.92h507.73c8.79,0,15.92-7.13,15.92-15.92,0-121.79-81.14-224.94-192.18-258.36Z"/><path class="cls-2" d="m1450.11,1087.48c48.1-27.19,80.67-78.78,80.67-137.87,0-87.28-71.01-158.28-158.28-158.28s-158.28,71-158.28,158.28c0,59.09,32.56,110.68,80.67,137.87-111.04,33.42-192.17,136.57-192.17,258.36,0,8.79,7.13,15.92,15.92,15.92h507.73c8.79,0,15.92-7.13,15.92-15.92,0-121.79-81.14-224.94-192.18-258.36Z"/><path class="cls-2" d="m1447.61,1084.98c48.1-27.19,80.67-78.78,80.67-137.87,0-87.28-71.01-158.28-158.28-158.28s-158.28,71-158.28,158.28c0,59.09,32.56,110.68,80.67,137.87-111.04,33.42-192.17,136.57-192.17,258.36,0,8.79,7.13,15.92,15.92,15.92h507.73c8.79,0,15.92-7.13,15.92-15.92,0-121.79-81.14-224.94-192.18-258.36Z"/><path class="cls-2" d="m1445.11,1082.48c48.1-27.19,80.67-78.78,80.67-137.87,0-87.28-71.01-158.28-158.28-158.28s-158.28,71-158.28,158.28c0,59.09,32.56,110.68,80.67,137.87-111.04,33.42-192.17,136.57-192.17,258.36,0,8.79,7.13,15.92,15.92,15.92h507.73c8.79,0,15.92-7.13,15.92-15.92,0-121.79-81.14-224.94-192.18-258.36Z"/><path class="cls-2" d="m1442.61,1079.98c48.1-27.19,80.67-78.78,80.67-137.87,0-87.28-71.01-158.28-158.28-158.28s-158.28,71-158.28,158.28c0,59.09,32.56,110.68,80.67,137.87-111.04,33.42-192.17,136.57-192.17,258.36,0,8.79,7.13,15.92,15.92,15.92h507.73c8.79,0,15.92-7.13,15.92-15.92,0-121.79-81.14-224.94-192.18-258.36Z"/><path class="cls-2" d="m1440.11,1077.48c48.1-27.19,80.67-78.78,80.67-137.87,0-87.28-71.01-158.28-158.28-158.28s-158.28,71-158.28,158.28c0,59.09,32.56,110.68,80.67,137.87-111.04,33.42-192.17,136.57-192.17,258.36,0,8.79,7.13,15.92,15.92,15.92h507.73c8.79,0,15.92-7.13,15.92-15.92,0-121.79-81.14-224.94-192.18-258.36Z"/><path class="cls-2" d="m1437.61,1074.98c48.1-27.19,80.67-78.78,80.67-137.87,0-87.28-71.01-158.28-158.28-158.28s-158.28,71-158.28,158.28c0,59.09,32.56,110.68,80.67,137.87-111.04,33.42-192.17,136.57-192.17,258.36,0,8.79,7.13,15.92,15.92,15.92h507.73c8.79,0,15.92-7.13,15.92-15.92,0-121.79-81.14-224.94-192.18-258.36Z"/><path class="cls-2" d="m1435.11,1072.48c48.1-27.19,80.67-78.78,80.67-137.87,0-87.28-71.01-158.28-158.28-158.28s-158.28,71-158.28,158.28c0,59.09,32.56,110.68,80.67,137.87-111.04,33.42-192.17,136.57-192.17,258.36,0,8.79,7.13,15.92,15.92,15.92h507.73c8.79,0,15.92-7.13,15.92-15.92,0-121.79-81.14-224.94-192.18-258.36Z"/><path class="cls-2" d="m1432.61,1069.98c48.1-27.19,80.67-78.78,80.67-137.87,0-87.28-71.01-158.28-158.28-158.28s-158.28,71-158.28,158.28c0,59.09,32.56,110.68,80.67,137.87-111.04,33.42-192.17,136.57-192.17,258.36,0,8.79,7.13,15.92,15.92,15.92h507.73c8.79,0,15.92-7.13,15.92-15.92,0-121.79-81.14-224.94-192.18-258.36Z"/><path class="cls-2" d="m1430.11,1067.48c48.1-27.19,80.67-78.78,80.67-137.87,0-87.28-71.01-158.28-158.28-158.28s-158.28,71-158.28,158.28c0,59.09,32.56,110.68,80.67,137.87-111.04,33.42-192.17,136.57-192.17,258.36,0,8.79,7.13,15.92,15.92,15.92h507.73c8.79,0,15.92-7.13,15.92-15.92,0-121.79-81.14-224.94-192.18-258.36Z"/><path class="cls-2" d="m1427.61,1064.98c48.1-27.19,80.67-78.78,80.67-137.87,0-87.28-71.01-158.28-158.28-158.28s-158.28,71-158.28,158.28c0,59.09,32.56,110.68,80.67,137.87-111.04,33.42-192.17,136.57-192.17,258.36,0,8.79,7.13,15.92,15.92,15.92h507.73c8.79,0,15.92-7.13,15.92-15.92,0-121.79-81.14-224.94-192.18-258.36Z"/><path class="cls-2" d="m1425.11,1062.48c48.1-27.19,80.67-78.78,80.67-137.87,0-87.28-71.01-158.28-158.28-158.28s-158.28,71-158.28,158.28c0,59.09,32.56,110.68,80.67,137.87-111.04,33.42-192.17,136.57-192.17,258.36,0,8.79,7.13,15.92,15.92,15.92h507.73c8.79,0,15.92-7.13,15.92-15.92,0-121.79-81.14-224.94-192.18-258.36Z"/><path class="cls-2" d="m1422.61,1059.98c48.1-27.19,80.67-78.78,80.67-137.87,0-87.28-71.01-158.28-158.28-158.28s-158.28,71-158.28,158.28c0,59.09,32.56,110.68,80.67,137.87-111.04,33.42-192.17,136.57-192.17,258.36,0,8.79,7.13,15.92,15.92,15.92h507.73c8.79,0,15.92-7.13,15.92-15.92,0-121.79-81.14-224.94-192.18-258.36Z"/><path class="cls-2" d="m1420.11,1057.48c48.1-27.19,80.67-78.78,80.67-137.87,0-87.28-71.01-158.28-158.28-158.28s-158.28,71-158.28,158.28c0,59.09,32.56,110.68,80.67,137.87-111.04,33.42-192.17,136.57-192.17,258.36,0,8.79,7.13,15.92,15.92,15.92h507.73c8.79,0,15.92-7.13,15.92-15.92,0-121.79-81.14-224.94-192.18-258.36Z"/><path class="cls-2" d="m1417.61,1054.98c48.1-27.19,80.67-78.78,80.67-137.87,0-87.28-71.01-158.28-158.28-158.28s-158.28,71-158.28,158.28c0,59.09,32.56,110.68,80.67,137.87-111.04,33.42-192.17,136.57-192.17,258.36,0,8.79,7.13,15.92,15.92,15.92h507.73c8.79,0,15.92-7.13,15.92-15.92,0-121.79-81.14-224.94-192.18-258.36Z"/><path class="cls-2" d="m1415.11,1052.48c48.1-27.19,80.67-78.78,80.67-137.87,0-87.28-71.01-158.28-158.28-158.28s-158.28,71-158.28,158.28c0,59.09,32.56,110.68,80.67,137.87-111.04,33.42-192.17,136.57-192.17,258.36,0,8.79,7.13,15.92,15.92,15.92h507.73c8.79,0,15.92-7.13,15.92-15.92,0-121.79-81.14-224.94-192.18-258.36Z"/><path class="cls-2" d="m1412.61,1049.98c48.1-27.19,80.67-78.78,80.67-137.87,0-87.28-71.01-158.28-158.28-158.28s-158.28,71-158.28,158.28c0,59.09,32.56,110.68,80.67,137.87-111.04,33.42-192.17,136.57-192.17,258.36,0,8.79,7.13,15.92,15.92,15.92h507.73c8.79,0,15.92-7.13,15.92-15.92,0-121.79-81.14-224.94-192.18-258.36Z"/><path class="cls-2" d="m1410.11,1047.48c48.1-27.19,80.67-78.78,80.67-137.87,0-87.28-71.01-158.28-158.28-158.28s-158.28,71-158.28,158.28c0,59.09,32.56,110.68,80.67,137.87-111.04,33.42-192.17,136.57-192.17,258.36,0,8.79,7.13,15.92,15.92,15.92h507.73c8.79,0,15.92-7.13,15.92-15.92,0-121.79-81.14-224.94-192.18-258.36Z"/><path class="cls-2" d="m1407.61,1044.98c48.1-27.19,80.67-78.78,80.67-137.87,0-87.28-71.01-158.28-158.28-158.28s-158.28,71-158.28,158.28c0,59.09,32.56,110.68,80.67,137.87-111.04,33.42-192.17,136.57-192.17,258.36,0,8.79,7.13,15.92,15.92,15.92h507.73c8.79,0,15.92-7.13,15.92-15.92,0-121.79-81.14-224.94-192.18-258.36Z"/><path class="cls-2" d="m1405.11,1042.48c48.1-27.19,80.67-78.78,80.67-137.87,0-87.28-71.01-158.28-158.28-158.28s-158.28,71-158.28,158.28c0,59.09,32.56,110.68,80.67,137.87-111.04,33.42-192.17,136.57-192.17,258.36,0,8.79,7.13,15.92,15.92,15.92h507.73c8.79,0,15.92-7.13,15.92-15.92,0-121.79-81.14-224.94-192.18-258.36Z"/><path class="cls-2" d="m1402.61,1039.98c48.1-27.19,80.67-78.78,80.67-137.87,0-87.28-71.01-158.28-158.28-158.28s-158.28,71-158.28,158.28c0,59.09,32.56,110.68,80.67,137.87-111.04,33.42-192.17,136.57-192.17,258.36,0,8.79,7.13,15.92,15.92,15.92h507.73c8.79,0,15.92-7.13,15.92-15.92,0-121.79-81.14-224.94-192.18-258.36Z"/><path class="cls-2" d="m1400.11,1037.48c48.1-27.19,80.67-78.78,80.67-137.87,0-87.28-71.01-158.28-158.28-158.28s-158.28,71-158.28,158.28c0,59.09,32.56,110.68,80.67,137.87-111.04,33.42-192.17,136.57-192.17,258.36,0,8.79,7.13,15.92,15.92,15.92h507.73c8.79,0,15.92-7.13,15.92-15.92,0-121.79-81.14-224.94-192.18-258.36Z"/><path class="cls-2" d="m1397.61,1034.98c48.1-27.19,80.67-78.78,80.67-137.87,0-87.28-71.01-158.28-158.28-158.28s-158.28,71-158.28,158.28c0,59.09,32.56,110.68,80.67,137.87-111.04,33.42-192.17,136.57-192.17,258.36,0,8.79,7.13,15.92,15.92,15.92h507.73c8.79,0,15.92-7.13,15.92-15.92,0-121.79-81.14-224.94-192.18-258.36Z"/><path class="cls-2" d="m1395.11,1032.48c48.1-27.19,80.67-78.78,80.67-137.87,0-87.28-71.01-158.28-158.28-158.28s-158.28,71-158.28,158.28c0,59.09,32.56,110.68,80.67,137.87-111.04,33.42-192.17,136.57-192.17,258.36,0,8.79,7.13,15.92,15.92,15.92h507.73c8.79,0,15.92-7.13,15.92-15.92,0-121.79-81.14-224.94-192.18-258.36Z"/><path class="cls-2" d="m1392.61,1029.98c48.1-27.19,80.67-78.78,80.67-137.87,0-87.28-71.01-158.28-158.28-158.28s-158.28,71-158.28,158.28c0,59.09,32.56,110.68,80.67,137.87-111.04,33.42-192.17,136.57-192.17,258.36,0,8.79,7.13,15.92,15.92,15.92h507.73c8.79,0,15.92-7.13,15.92-15.92,0-121.79-81.14-224.94-192.18-258.36Z"/><path class="cls-2" d="m1390.11,1027.48c48.1-27.19,80.67-78.78,80.67-137.87,0-87.28-71.01-158.28-158.28-158.28s-158.28,71-158.28,158.28c0,59.09,32.56,110.68,80.67,137.87-111.04,33.42-192.17,136.57-192.17,258.36,0,8.79,7.13,15.92,15.92,15.92h507.73c8.79,0,15.92-7.13,15.92-15.92,0-121.79-81.14-224.94-192.18-258.36Z"/><path class="cls-2" d="m1387.61,1024.98c48.1-27.19,80.67-78.78,80.67-137.87,0-87.28-71.01-158.28-158.28-158.28s-158.28,71-158.28,158.28c0,59.09,32.56,110.68,80.67,137.87-111.04,33.42-192.17,136.57-192.17,258.36,0,8.79,7.13,15.92,15.92,15.92h507.73c8.79,0,15.92-7.13,15.92-15.92,0-121.79-81.14-224.94-192.18-258.36Z"/><path class="cls-2" d="m1385.11,1022.48c48.1-27.19,80.67-78.78,80.67-137.87,0-87.28-71.01-158.28-158.28-158.28s-158.28,71-158.28,158.28c0,59.09,32.56,110.68,80.67,137.87-111.04,33.42-192.17,136.57-192.17,258.36,0,8.79,7.13,15.92,15.92,15.92h507.73c8.79,0,15.92-7.13,15.92-15.92,0-121.79-81.14-224.94-192.18-258.36Z"/><path class="cls-2" d="m1382.61,1019.98c48.1-27.19,80.67-78.78,80.67-137.87,0-87.28-71.01-158.28-158.28-158.28s-158.28,71-158.28,158.28c0,59.09,32.56,110.68,80.67,137.87-111.04,33.42-192.17,136.57-192.17,258.36,0,8.79,7.13,15.92,15.92,15.92h507.73c8.79,0,15.92-7.13,15.92-15.92,0-121.79-81.14-224.94-192.18-258.36Z"/><path class="cls-2" d="m1380.11,1017.48c48.1-27.19,80.67-78.78,80.67-137.87,0-87.28-71.01-158.28-158.28-158.28s-158.28,71-158.28,158.28c0,59.09,32.56,110.68,80.67,137.87-111.04,33.42-192.17,136.57-192.17,258.36,0,8.79,7.13,15.92,15.92,15.92h507.73c8.79,0,15.92-7.13,15.92-15.92,0-121.79-81.14-224.94-192.18-258.36Z"/><path class="cls-2" d="m1377.61,1014.98c48.1-27.19,80.67-78.78,80.67-137.87,0-87.28-71.01-158.28-158.28-158.28s-158.28,71-158.28,158.28c0,59.09,32.56,110.68,80.67,137.87-111.04,33.42-192.17,136.57-192.17,258.36,0,8.79,7.13,15.92,15.92,15.92h507.73c8.79,0,15.92-7.13,15.92-15.92,0-121.79-81.14-224.94-192.18-258.36Z"/><path class="cls-2" d="m1375.11,1012.48c48.1-27.19,80.67-78.78,80.67-137.87,0-87.28-71.01-158.28-158.28-158.28s-158.28,71-158.28,158.28c0,59.09,32.56,110.68,80.67,137.87-111.04,33.42-192.17,136.57-192.17,258.36,0,8.79,7.13,15.92,15.92,15.92h507.73c8.79,0,15.92-7.13,15.92-15.92,0-121.79-81.14-224.94-192.18-258.36Z"/><path class="cls-2" d="m1372.61,1009.98c48.1-27.19,80.67-78.78,80.67-137.87,0-87.28-71.01-158.28-158.28-158.28s-158.28,71-158.28,158.28c0,59.09,32.56,110.68,80.67,137.87-111.04,33.42-192.17,136.57-192.17,258.36,0,8.79,7.13,15.92,15.92,15.92h507.73c8.79,0,15.92-7.13,15.92-15.92,0-121.79-81.14-224.94-192.18-258.36Z"/><path class="cls-2" d="m1370.11,1007.48c48.1-27.19,80.67-78.78,80.67-137.87,0-87.28-71.01-158.28-158.28-158.28s-158.28,71-158.28,158.28c0,59.09,32.56,110.68,80.67,137.87-111.04,33.42-192.17,136.57-192.17,258.36,0,8.79,7.13,15.92,15.92,15.92h507.73c8.79,0,15.92-7.13,15.92-15.92,0-121.79-81.14-224.94-192.18-258.36Z"/><path class="cls-2" d="m1367.61,1004.98c48.1-27.19,80.67-78.78,80.67-137.87,0-87.28-71.01-158.28-158.28-158.28s-158.28,71-158.28,158.28c0,59.09,32.56,110.68,80.67,137.87-111.04,33.42-192.17,136.57-192.17,258.36,0,8.79,7.13,15.92,15.92,15.92h507.73c8.79,0,15.92-7.13,15.92-15.92,0-121.79-81.14-224.94-192.18-258.36Z"/><path class="cls-2" d="m1365.11,1002.48c48.1-27.19,80.67-78.78,80.67-137.87,0-87.28-71.01-158.28-158.28-158.28s-158.28,71-158.28,158.28c0,59.09,32.56,110.68,80.67,137.87-111.04,33.42-192.17,136.57-192.17,258.36,0,8.79,7.13,15.92,15.92,15.92h507.73c8.79,0,15.92-7.13,15.92-15.92,0-121.79-81.14-224.94-192.18-258.36Z"/><path class="cls-2" d="m1362.61,999.98c48.1-27.19,80.67-78.78,80.67-137.86,0-87.28-71.01-158.28-158.28-158.28s-158.28,71-158.28,158.28c0,59.09,32.56,110.68,80.67,137.86-111.04,33.42-192.17,136.57-192.17,258.36,0,8.79,7.13,15.92,15.92,15.92h507.73c8.79,0,15.92-7.13,15.92-15.92,0-121.79-81.14-224.94-192.18-258.36Z"/><path class="cls-2" d="m1360.11,997.48c48.1-27.19,80.67-78.78,80.67-137.86,0-87.28-71.01-158.28-158.28-158.28s-158.28,71-158.28,158.28c0,59.09,32.56,110.68,80.67,137.86-111.04,33.42-192.17,136.57-192.17,258.36,0,8.79,7.13,15.92,15.92,15.92h507.73c8.79,0,15.92-7.13,15.92-15.92,0-121.79-81.14-224.94-192.18-258.36Z"/><path class="cls-2" d="m1357.61,994.98c48.1-27.19,80.67-78.78,80.67-137.86,0-87.28-71.01-158.28-158.28-158.28s-158.28,71-158.28,158.28c0,59.09,32.56,110.68,80.67,137.86-111.04,33.42-192.17,136.57-192.17,258.36,0,8.79,7.13,15.92,15.92,15.92h507.73c8.79,0,15.92-7.13,15.92-15.92,0-121.79-81.14-224.94-192.18-258.36Z"/><path class="cls-2" d="m1355.11,992.48c48.1-27.19,80.67-78.78,80.67-137.86,0-87.28-71.01-158.28-158.28-158.28s-158.28,71-158.28,158.28c0,59.09,32.56,110.68,80.67,137.86-111.04,33.42-192.17,136.57-192.17,258.36,0,8.79,7.13,15.92,15.92,15.92h507.73c8.79,0,15.92-7.13,15.92-15.92,0-121.79-81.14-224.94-192.18-258.36Z"/><path class="cls-2" d="m1352.61,989.98c48.1-27.19,80.67-78.78,80.67-137.86,0-87.28-71.01-158.28-158.28-158.28s-158.28,71-158.28,158.28c0,59.09,32.56,110.68,80.67,137.86-111.04,33.42-192.17,136.57-192.17,258.36,0,8.79,7.13,15.92,15.92,15.92h507.73c8.79,0,15.92-7.13,15.92-15.92,0-121.79-81.14-224.94-192.18-258.36Z"/><path class="cls-2" d="m1350.11,987.48c48.1-27.19,80.67-78.78,80.67-137.86,0-87.28-71.01-158.28-158.28-158.28s-158.28,71-158.28,158.28c0,59.09,32.56,110.68,80.67,137.86-111.04,33.42-192.17,136.57-192.17,258.36,0,8.79,7.13,15.92,15.92,15.92h507.73c8.79,0,15.92-7.13,15.92-15.92,0-121.79-81.14-224.94-192.18-258.36Z"/><path class="cls-2" d="m1347.61,984.98c48.1-27.19,80.67-78.78,80.67-137.86,0-87.28-71.01-158.28-158.28-158.28s-158.28,71-158.28,158.28c0,59.09,32.56,110.68,80.67,137.86-111.04,33.42-192.17,136.57-192.17,258.36,0,8.79,7.13,15.92,15.92,15.92h507.73c8.79,0,15.92-7.13,15.92-15.92,0-121.79-81.14-224.94-192.18-258.36Z"/><path class="cls-2" d="m1345.11,982.48c48.1-27.19,80.67-78.78,80.67-137.86,0-87.28-71.01-158.28-158.28-158.28s-158.28,71-158.28,158.28c0,59.09,32.56,110.68,80.67,137.86-111.04,33.42-192.17,136.57-192.17,258.36,0,8.79,7.13,15.92,15.92,15.92h507.73c8.79,0,15.92-7.13,15.92-15.92,0-121.79-81.14-224.94-192.18-258.36Z"/><path class="cls-2" d="m1342.61,979.98c48.1-27.19,80.67-78.78,80.67-137.86,0-87.28-71.01-158.28-158.28-158.28s-158.28,71-158.28,158.28c0,59.09,32.56,110.68,80.67,137.86-111.04,33.42-192.17,136.57-192.17,258.36,0,8.79,7.13,15.92,15.92,15.92h507.73c8.79,0,15.92-7.13,15.92-15.92,0-121.79-81.14-224.94-192.18-258.36Z"/><path class="cls-2" d="m1340.11,977.48c48.1-27.19,80.67-78.78,80.67-137.86,0-87.28-71.01-158.28-158.28-158.28s-158.28,71-158.28,158.28c0,59.09,32.56,110.68,80.67,137.86-111.04,33.42-192.17,136.57-192.17,258.36,0,8.79,7.13,15.92,15.92,15.92h507.73c8.79,0,15.92-7.13,15.92-15.92,0-121.79-81.14-224.94-192.18-258.36Z"/><path class="cls-2" d="m1337.61,974.98c48.1-27.19,80.67-78.78,80.67-137.86,0-87.28-71.01-158.28-158.28-158.28s-158.28,71-158.28,158.28c0,59.09,32.56,110.68,80.67,137.86-111.04,33.42-192.17,136.57-192.17,258.36,0,8.79,7.13,15.92,15.92,15.92h507.73c8.79,0,15.92-7.13,15.92-15.92,0-121.79-81.14-224.94-192.18-258.36Z"/><path class="cls-2" d="m1335.11,972.48c48.1-27.19,80.67-78.78,80.67-137.86,0-87.28-71.01-158.28-158.28-158.28s-158.28,71-158.28,158.28c0,59.09,32.56,110.68,80.67,137.86-111.04,33.42-192.17,136.57-192.17,258.36,0,8.79,7.13,15.92,15.92,15.92h507.73c8.79,0,15.92-7.13,15.92-15.92,0-121.79-81.14-224.94-192.18-258.36Z"/><path class="cls-2" d="m1332.61,969.98c48.1-27.19,80.67-78.78,80.67-137.86,0-87.28-71.01-158.28-158.28-158.28s-158.28,71-158.28,158.28c0,59.09,32.56,110.68,80.67,137.86-111.04,33.42-192.17,136.57-192.17,258.36,0,8.79,7.13,15.92,15.92,15.92h507.73c8.79,0,15.92-7.13,15.92-15.92,0-121.79-81.14-224.94-192.18-258.36Z"/><path class="cls-2" d="m1330.11,967.48c48.1-27.19,80.67-78.78,80.67-137.86,0-87.28-71.01-158.28-158.28-158.28s-158.28,71-158.28,158.28c0,59.09,32.56,110.68,80.67,137.86-111.04,33.42-192.17,136.57-192.17,258.36,0,8.79,7.13,15.92,15.92,15.92h507.73c8.79,0,15.92-7.13,15.92-15.92,0-121.79-81.14-224.94-192.18-258.36Z"/><path class="cls-2" d="m1327.61,964.98c48.1-27.19,80.67-78.78,80.67-137.86,0-87.28-71.01-158.28-158.28-158.28s-158.28,71-158.28,158.28c0,59.09,32.56,110.68,80.67,137.86-111.04,33.42-192.17,136.57-192.17,258.36,0,8.79,7.13,15.92,15.92,15.92h507.73c8.79,0,15.92-7.13,15.92-15.92,0-121.79-81.14-224.94-192.18-258.36Z"/></g></g><path class="cls-5" d="m1327.61,964.98c48.1-27.19,80.67-78.78,80.67-137.86,0-87.28-71.01-158.28-158.28-158.28s-158.28,71-158.28,158.28c0,59.09,32.56,110.68,80.67,137.86-111.04,33.42-192.17,136.57-192.17,258.36,0,8.79,7.13,15.92,15.92,15.92h507.73c8.79,0,15.92-7.13,15.92-15.92,0-121.79-81.14-224.94-192.18-258.36Z"/></g></g></svg>