<?xml version="1.0" encoding="UTF-8"?><svg xmlns="http://www.w3.org/2000/svg" xmlns:xlink="http://www.w3.org/1999/xlink" viewBox="0 0 2000 2000"><defs><style>.cls-1{fill:url(#linear-gradient);}.cls-1,.cls-2,.cls-3{stroke-width:0px;}.cls-4{isolation:isolate;}.cls-2{fill:#fff;}.cls-3{fill:url(#linear-gradient-2);mix-blend-mode:multiply;opacity:.35;}</style><linearGradient id="linear-gradient" x1="1000" y1="357.94" x2="1000" y2="1642.06" gradientUnits="userSpaceOnUse"><stop offset="0" stop-color="#fc8aec"/><stop offset="1" stop-color="#7047dd"/></linearGradient><linearGradient id="linear-gradient-2" x1="1000" y1="1492.06" x2="1000" y2="641.79" xlink:href="#linear-gradient"/></defs><g class="cls-4"><g id="Layer_2"><rect class="cls-2" width="2000" height="2000"/></g><g id="Layer_1"><path class="cls-1" d="m934.15,402.51l-209.94,524.84c-17.89,44.73-74.23,58.99-111.25,28.14l-246.58-205.48c-50.49-42.07-126.09,1.22-115.37,66.05l115.08,766.65c5.66,34.23,35.27,59.34,69.97,59.34h1127.84c34.7,0,64.3-25.11,69.97-59.34l115.08-766.65c10.72-64.84-64.88-108.12-115.37-66.05l-246.58,205.48c-37.01,30.84-93.35,16.59-111.25-28.14l-209.94-524.84c-23.78-59.44-107.91-59.44-131.69,0Z"/><path class="cls-3" d="m504.18,1492.06l-74.11-493.73,86.88,72.4c39.65,33.04,89.81,51.23,141.27,51.23,90.95,0,171.53-54.52,205.28-138.9l136.51-341.28,136.51,341.28c33.75,84.38,114.33,138.9,205.28,138.9,51.45,0,101.62-18.19,141.26-51.23l86.88-72.4-74.12,493.73H504.18Z"/></g></g></svg>